<?xml version="1.0" encoding="utf-8"?>
<!-- Generator: Adobe Illustrator 27.5.0, SVG Export Plug-In . SVG Version: 6.00 Build 0)  -->
<svg version="1.1" id="레이어_1" xmlns="http://www.w3.org/2000/svg" xmlns:xlink="http://www.w3.org/1999/xlink" x="0px"
	 y="0px" viewBox="0 0 250 250" style="enable-background:new 0 0 250 250;" xml:space="preserve">
<style type="text/css">
	.st0{fill:#FFFFFF;}
	.st1{fill:none;stroke:#000000;stroke-width:5;stroke-linecap:round;stroke-miterlimit:10;}
	.st2{fill:#FBB03B;}
</style>
<g>
	<path class="st0" d="M125,230.48c-31.75,0-63.78-16.9-63.78-54.65c0-20.92,10.29-40.54,27.54-52.47l3.23-2.24l-2.59-2.95
		c-7.59-8.65-11.77-19.74-11.77-31.24c0-26.12,21.25-47.38,47.38-47.38s47.38,21.25,47.38,47.38c0,11.5-4.18,22.59-11.77,31.24
		l-2.59,2.95l3.23,2.24c17.24,11.93,27.54,31.55,27.54,52.47C188.78,213.58,156.75,230.48,125,230.48z"/>
	<path d="M125,43.05c24.19,0,43.88,19.68,43.88,43.88c0,10.65-3.87,20.92-10.9,28.93l-5.18,5.9l6.46,4.47
		c16.3,11.28,26.03,29.82,26.03,49.59c0,15.48-5.92,28.48-17.12,37.57c-10.77,8.75-26.1,13.57-43.16,13.57s-32.39-4.82-43.16-13.57
		c-11.2-9.1-17.12-22.09-17.12-37.57c0-19.77,9.73-38.31,26.03-49.59l6.46-4.47l-5.18-5.9c-7.03-8.01-10.9-18.28-10.9-28.93
		C81.12,62.74,100.81,43.05,125,43.05 M125,36.05c-28.1,0-50.88,22.78-50.88,50.88c0,12.86,4.78,24.59,12.64,33.55
		c-17.54,12.14-29.05,32.4-29.05,55.35c0,37.16,30.12,58.15,67.28,58.15s67.28-20.99,67.28-58.15c0-22.95-11.5-43.21-29.04-55.35
		c7.87-8.96,12.64-20.69,12.64-33.55C175.88,58.83,153.1,36.05,125,36.05L125,36.05z"/>
</g>
<g>
	<circle class="st0" cx="-90" cy="93.29" r="37"/>
	<path d="M-90,58.29c19.3,0,35,15.7,35,35s-15.7,35-35,35s-35-15.7-35-35S-109.3,58.29-90,58.29 M-90,54.29c-21.54,0-39,17.46-39,39
		s17.46,39,39,39s39-17.46,39-39S-68.46,54.29-90,54.29L-90,54.29z"/>
</g>
<g>
	<circle class="st0" cx="-90" cy="161.43" r="49.57"/>
	<path d="M-90,113.86c26.23,0,47.57,21.34,47.57,47.57S-63.77,209-90,209s-47.57-21.34-47.57-47.57S-116.23,113.86-90,113.86
		 M-90,109.86c-28.48,0-51.57,23.09-51.57,51.57S-118.48,213-90,213s51.57-23.09,51.57-51.57S-61.52,109.86-90,109.86L-90,109.86z"
		/>
</g>
<g>
	<circle cx="108.04" cy="74.82" r="4.84"/>
	<path d="M108.04,70.35c2.46,0,4.47,2,4.47,4.47s-2,4.47-4.47,4.47c-2.46,0-4.47-2-4.47-4.47S105.58,70.35,108.04,70.35
		 M108.04,69.6c-2.88,0-5.22,2.34-5.22,5.22s2.34,5.22,5.22,5.22s5.22-2.34,5.22-5.22S110.92,69.6,108.04,69.6L108.04,69.6z"/>
</g>
<g>
	<path d="M125,153.6c-3.34,0-6.06-2.72-6.06-6.06s2.72-6.06,6.06-6.06s6.06,2.72,6.06,6.06S128.34,153.6,125,153.6z"/>
	<path d="M125,141.86c3.13,0,5.68,2.55,5.68,5.68s-2.55,5.68-5.68,5.68c-3.13,0-5.68-2.55-5.68-5.68S121.87,141.86,125,141.86
		 M125,141.11c-3.55,0-6.43,2.88-6.43,6.43s2.88,6.43,6.43,6.43c3.55,0,6.43-2.88,6.43-6.43S128.55,141.11,125,141.11L125,141.11z"
		/>
</g>
<g>
	<path d="M125,176.11c-3.34,0-6.06-2.72-6.06-6.06S121.66,164,125,164s6.06,2.72,6.06,6.06S128.34,176.11,125,176.11z"/>
	<path d="M125,164.37c3.13,0,5.68,2.55,5.68,5.68c0,3.13-2.55,5.68-5.68,5.68c-3.13,0-5.68-2.55-5.68-5.68
		C119.32,166.92,121.87,164.37,125,164.37 M125,163.62c-3.55,0-6.43,2.88-6.43,6.43c0,3.55,2.88,6.43,6.43,6.43
		c3.55,0,6.43-2.88,6.43-6.43C131.43,166.5,128.55,163.62,125,163.62L125,163.62z"/>
</g>
<g>
	<path d="M125,198.62c-3.34,0-6.06-2.72-6.06-6.06s2.72-6.06,6.06-6.06s6.06,2.72,6.06,6.06S128.34,198.62,125,198.62z"/>
	<path d="M125,186.89c3.13,0,5.68,2.55,5.68,5.68c0,3.13-2.55,5.68-5.68,5.68c-3.13,0-5.68-2.55-5.68-5.68
		C119.32,189.43,121.87,186.89,125,186.89 M125,186.14c-3.55,0-6.43,2.88-6.43,6.43c0,3.55,2.88,6.43,6.43,6.43
		c3.55,0,6.43-2.88,6.43-6.43C131.43,189.02,128.55,186.14,125,186.14L125,186.14z"/>
</g>
<g>
	<path d="M141.96,79.66c-2.67,0-4.84-2.17-4.84-4.84s2.17-4.84,4.84-4.84c2.67,0,4.84,2.17,4.84,4.84S144.63,79.66,141.96,79.66z"/>
	<path d="M141.96,70.35c2.46,0,4.47,2,4.47,4.47s-2,4.47-4.47,4.47s-4.47-2-4.47-4.47S139.5,70.35,141.96,70.35 M141.96,69.6
		c-2.88,0-5.22,2.34-5.22,5.22s2.34,5.22,5.22,5.22c2.88,0,5.22-2.34,5.22-5.22S144.84,69.6,141.96,69.6L141.96,69.6z"/>
</g>
<g>
	<g>
		<line class="st1" x1="177.82" y1="24.61" x2="155.68" y2="46.75"/>
	</g>
	<line class="st1" x1="155.68" y1="46.75" x2="171.36" y2="46.75"/>
	<line class="st1" x1="155.68" y1="46.75" x2="155.68" y2="31.07"/>
	<g>
		<line class="st1" x1="166.75" y1="35.68" x2="182.43" y2="35.68"/>
		<line class="st1" x1="166.75" y1="35.68" x2="166.75" y2="20"/>
	</g>
</g>
<g>
	<g>
		<line class="st1" x1="72.18" y1="24.61" x2="94.32" y2="46.75"/>
	</g>
	<line class="st1" x1="94.32" y1="46.75" x2="78.64" y2="46.75"/>
	<line class="st1" x1="94.32" y1="46.75" x2="94.32" y2="31.07"/>
	<g>
		<line class="st1" x1="83.25" y1="35.68" x2="67.57" y2="35.68"/>
		<line class="st1" x1="83.25" y1="35.68" x2="83.25" y2="20"/>
	</g>
</g>
<g>
	<path class="st2" d="M142.01,106.47L128.13,86.3c-0.6-0.86-1.83-0.98-2.57-0.24l-6.29,6.29c-0.74,0.74-0.63,1.98,0.24,2.57
		l20.17,13.89C141.21,109.86,143.07,108,142.01,106.47z"/>
</g>
</svg>
